<?xml version="1.0" standalone="no"?>
<!DOCTYPE svg PUBLIC "-//W3C//DTD SVG 20010904//EN"
 "http://www.w3.org/TR/2001/REC-SVG-20010904/DTD/svg10.dtd">
<svg version="1.0" xmlns="http://www.w3.org/2000/svg"
 width="1418.000000pt" height="1418.000000pt" viewBox="0 0 1418.000000 1418.000000"
 preserveAspectRatio="xMidYMid meet">

<g transform="translate(0.000000,1418.000000) scale(0.100000,-0.100000)"
fill="#000000" stroke="none">
<path d="M8200 12581 c-123 -39 -239 -110 -330 -200 -119 -118 -184 -231 -245
-425 l-37 -120 -29 57 c-65 132 -197 276 -314 344 -135 78 -235 110 -360 115
l-80 3 -3 -47 c-4 -60 26 -163 79 -268 30 -60 62 -103 118 -160 67 -69 185
-160 206 -160 5 0 16 -6 24 -13 29 -24 281 -117 317 -117 22 0 43 -36 53 -95
8 -43 8 -105 1 -208 -12 -175 -31 -227 -110 -301 -27 -25 -55 -56 -61 -68 -12
-22 -12 -22 14 -5 39 26 44 21 12 -13 -15 -16 -31 -27 -35 -25 -10 6 -20 -19
-20 -48 0 -29 -67 -156 -144 -270 -36 -54 -68 -106 -71 -117 -3 -10 -13 -24
-21 -31 -14 -11 -14 -9 0 22 60 136 109 371 108 523 0 142 -35 296 -72 316
-37 20 -141 -87 -218 -223 -36 -63 -75 -178 -93 -272 -33 -172 2 -421 83 -595
11 -25 24 -61 29 -80 9 -41 -1 -112 -17 -117 -6 -2 -31 22 -55 54 -23 32 -48
64 -55 73 -106 133 -150 187 -164 200 -9 8 -36 40 -60 70 -24 30 -76 87 -115
125 -39 39 -90 99 -113 134 l-42 64 120 118 c66 65 120 122 120 128 0 5 6 16
13 23 32 36 99 169 131 260 33 97 66 263 66 336 0 65 -26 200 -42 220 -41 49
-283 -123 -388 -278 -49 -73 -78 -130 -107 -215 -34 -102 -69 -284 -65 -340 2
-23 0 -27 -7 -15 -6 8 -11 25 -11 37 0 32 -102 243 -156 324 -79 117 -262 277
-394 343 -65 33 -74 32 -89 -1 -32 -70 -21 -197 31 -348 79 -230 293 -418 617
-541 75 -28 91 -40 91 -64 0 -23 -37 -30 -157 -31 -65 0 -109 5 -159 20 -91
29 -233 51 -322 51 -97 0 -262 -26 -326 -51 -143 -56 -356 -186 -392 -238 -15
-21 -14 -24 19 -55 39 -37 181 -101 272 -123 75 -19 260 -20 340 -4 130 28
257 81 360 151 33 23 91 81 182 182 15 17 144 33 212 26 37 -3 65 -33 76 -79
7 -26 5 -27 -67 -39 -143 -24 -265 -88 -343 -181 -51 -60 -100 -149 -122 -218
-18 -58 -23 -204 -11 -326 4 -38 5 -64 2 -57 -7 15 -66 16 -82 0 -24 -24 -10
-184 24 -287 8 -24 28 -74 44 -111 15 -38 26 -70 24 -73 -2 -2 -28 3 -57 11
-35 10 -103 15 -212 16 -171 1 -231 -9 -343 -60 -29 -13 -54 -24 -56 -24 -3 0
-42 -23 -88 -51 -99 -62 -196 -141 -229 -188 l-23 -33 22 -18 c82 -67 453 -75
632 -14 119 41 256 122 346 207 47 44 62 53 76 46 10 -5 18 -13 18 -18 0 -7
74 -107 90 -121 27 -24 130 -162 130 -174 0 -15 -146 -66 -232 -80 -37 -7
-147 -60 -202 -98 -61 -43 -144 -140 -180 -211 -47 -93 -60 -166 -53 -298 6
-122 32 -192 114 -312 38 -55 48 -79 54 -129 9 -75 30 -98 93 -105 47 -6 74 5
123 49 12 11 51 30 86 43 132 46 244 128 311 229 74 111 119 313 97 432 -23
125 -47 184 -107 265 -23 31 -47 66 -53 77 -13 25 -15 105 -2 100 5 -1 54 -46
109 -98 55 -52 151 -142 213 -200 63 -58 153 -141 200 -185 l87 -80 1 -125 c1
-146 -15 -911 -29 -1385 -5 -181 -13 -480 -16 -662 l-7 -333 -631 -2 -631 -3
0 -25 0 -25 641 -3 642 -2 6 -25 c4 -16 11 -23 18 -19 9 6 9 9 0 12 -7 2 -12
10 -12 18 0 19 276 21 283 2 4 -10 6 -10 6 0 1 9 111 12 514 12 591 0 756 6
764 28 3 8 0 18 -8 23 -8 5 -291 9 -630 9 l-616 0 -6 183 c-4 100 -11 405 -17
677 -6 272 -15 601 -20 730 -14 339 -14 336 14 361 13 11 82 61 152 110 71 49
134 93 141 99 7 5 15 10 19 10 4 0 15 6 23 13 9 7 48 26 86 42 39 15 77 34 86
42 52 44 200 98 364 134 l90 19 35 -42 c124 -151 285 -256 525 -343 111 -40
195 -56 303 -57 66 -1 87 2 100 16 16 16 15 20 -13 71 -98 181 -311 350 -515
408 -105 29 -218 39 -315 27 -143 -17 -319 -56 -367 -81 -13 -6 7 19 44 57 86
89 150 168 177 221 25 50 26 69 5 77 -20 8 -129 -29 -176 -60 -21 -13 -40 -24
-43 -24 -5 0 -85 -57 -139 -99 -62 -49 -175 -166 -257 -268 -93 -115 -146
-174 -184 -203 -41 -31 -156 -103 -159 -99 -2 2 -8 209 -15 459 -6 250 -14
566 -17 702 -8 294 -20 260 157 434 67 65 129 127 140 138 17 18 18 18 8 -20
-6 -22 -16 -57 -22 -79 -18 -62 -14 -270 6 -328 31 -89 69 -151 126 -207 66
-66 115 -99 203 -135 55 -23 75 -26 163 -24 55 1 129 -1 166 -5 75 -9 129 7
150 46 7 12 13 52 14 88 2 40 11 86 25 120 29 73 33 239 6 315 -85 242 -239
370 -514 425 -52 10 -96 20 -98 23 -7 7 268 113 329 128 50 12 59 10 162 -36
28 -13 93 -37 146 -54 137 -45 135 -43 113 -121 -31 -114 -24 -344 17 -545 14
-68 54 -174 100 -266 68 -137 197 -310 231 -309 31 1 87 107 134 255 38 117
39 124 38 265 0 141 -8 192 -40 275 -41 104 -82 172 -147 241 -38 41 -65 74
-60 74 4 0 33 -7 63 -15 75 -20 260 -45 341 -45 69 0 129 15 129 32 0 6 -23
37 -51 69 -222 257 -708 387 -1022 273 -40 -14 -92 -29 -117 -34 -43 -8 -192
-49 -235 -66 -17 -6 -16 -3 6 22 86 95 176 275 215 429 24 91 24 286 2 365
-17 57 -11 80 20 80 8 0 57 21 109 46 142 70 202 138 258 297 9 26 20 47 25
47 4 0 44 -20 88 -45 44 -25 86 -45 94 -45 7 0 22 -6 33 -14 39 -27 232 -67
331 -69 118 -2 128 5 109 86 -26 109 -111 252 -211 351 -160 161 -395 255
-636 256 -68 0 -187 -26 -209 -46 -12 -10 -46 -14 -138 -14 -74 0 -120 4 -116
9 3 6 27 20 53 33 124 60 258 164 358 278 80 93 160 251 189 375 18 81 29 270
17 310 -10 37 -43 41 -122 16z m0 -67 c0 -6 -50 -75 -66 -89 -6 -5 -35 -44
-64 -85 -30 -41 -57 -77 -60 -80 -3 -3 -49 -66 -102 -140 -97 -138 -118 -172
-194 -319 -47 -90 -61 -111 -75 -111 -17 0 -9 97 16 181 13 46 25 91 25 99 0
25 93 201 136 260 87 118 194 208 309 261 62 29 75 33 75 23z m74 -101 c-14
-219 -123 -439 -294 -595 -44 -39 -92 -80 -107 -90 -37 -25 -140 -78 -152 -78
-10 0 9 81 26 115 6 11 21 40 33 65 46 93 66 127 119 210 48 75 106 155 121
170 3 3 19 23 35 46 28 38 214 244 221 244 2 0 1 -39 -2 -87z m-1297 -124 c84
-21 187 -61 233 -93 120 -83 144 -104 213 -196 23 -30 44 -57 47 -60 4 -3 15
-23 27 -45 11 -22 30 -57 42 -78 11 -21 27 -53 35 -72 l15 -35 -27 6 c-15 4
-68 47 -119 95 -51 48 -125 113 -165 145 -40 32 -80 65 -89 73 -18 18 -48 43
-95 81 -66 54 -194 173 -194 182 0 11 21 10 77 -3z m-61 -73 c6 -6 33 -29 60
-51 26 -22 98 -83 159 -135 61 -52 125 -106 142 -120 128 -104 287 -275 241
-258 -7 3 -38 13 -68 22 -200 63 -359 165 -462 296 -39 49 -106 184 -118 235
-7 30 -5 32 14 27 11 -3 26 -10 32 -16z m-242 -552 c-27 -66 -52 -116 -94
-189 -83 -145 -201 -407 -234 -520 -10 -33 -21 -71 -25 -85 -4 -14 -12 -25
-16 -25 -30 0 -30 216 -1 322 42 151 125 303 224 409 39 42 154 136 159 130 2
-2 -4 -20 -13 -42z m87 -194 c-25 -232 -114 -418 -292 -607 -49 -52 -87 -83
-101 -83 -19 0 -5 92 33 207 54 164 240 532 329 651 l25 34 9 -44 c6 -27 4
-85 -3 -158z m-1013 53 c37 -27 110 -91 162 -143 92 -91 109 -116 212 -304 21
-38 56 -146 49 -150 -8 -5 -104 92 -181 184 -30 36 -60 71 -67 78 -7 7 -29 34
-50 60 -21 26 -41 49 -44 52 -12 11 -98 137 -113 168 -12 22 -13 32 -5 32 7 0
4 10 -8 23 -54 60 -40 60 45 0z m2692 1 c144 -48 269 -129 362 -235 55 -62 63
-74 112 -174 33 -68 38 -91 14 -67 -7 7 -18 12 -26 12 -8 0 -44 21 -81 47 -64
46 -241 164 -311 208 -35 22 -90 53 -230 129 -140 77 -180 101 -180 110 0 5
55 7 128 4 103 -5 143 -11 212 -34z m-2831 9 c2 31 18 18 45 -35 34 -68 68
-122 92 -151 11 -12 33 -40 49 -62 34 -46 62 -81 125 -155 25 -29 51 -62 59
-74 8 -12 17 -23 21 -26 15 -14 89 -108 99 -127 38 -73 -153 31 -269 146 -106
105 -162 198 -215 356 -15 47 -29 161 -15 130 7 -17 9 -18 9 -2z m2425 -135
c18 -60 30 -108 26 -108 -4 0 -26 14 -48 30 -23 17 -46 30 -51 30 -5 0 -11 4
-13 8 -1 4 -52 38 -112 74 l-108 67 43 4 c24 2 86 3 137 3 l94 -1 32 -107z
m-304 38 c8 -7 48 -32 89 -56 41 -23 114 -69 163 -100 82 -53 97 -59 176 -71
48 -7 100 -18 115 -26 32 -16 32 -21 -5 -148 -18 -62 -28 -77 -92 -141 -71
-71 -148 -118 -223 -134 l-33 -8 20 33 c11 18 20 37 20 44 0 16 -60 14 -110
-4 -23 -8 -73 -15 -111 -15 -79 0 -249 36 -249 54 0 6 20 38 44 70 88 118 113
196 122 381 3 66 7 126 10 133 4 15 38 8 64 -12z m407 -58 c26 -40 51 -75 54
-78 9 -8 31 -51 27 -55 -2 -2 -19 0 -38 4 -30 6 -36 12 -53 61 -27 78 -46 140
-42 140 2 0 25 -33 52 -72z m72 59 c9 -8 32 -20 51 -27 33 -13 276 -148 350
-195 171 -108 271 -180 276 -202 4 -13 4 -27 0 -30 -9 -9 -172 25 -261 54 -44
15 -119 47 -166 72 -69 36 -97 59 -136 106 -154 190 -183 235 -147 235 10 0
25 -6 33 -13z m-1089 -329 c-4 -24 -18 -79 -30 -123 -22 -83 -44 -186 -61
-290 -5 -33 -12 -142 -16 -242 -5 -141 -9 -183 -19 -183 -26 0 -66 188 -71
335 -4 107 -2 131 21 211 36 128 84 234 131 287 22 26 43 46 46 47 3 0 3 -19
-1 -42z m95 -90 c11 -163 -13 -316 -81 -525 -69 -211 -84 -222 -84 -65 0 59 7
150 16 202 8 52 19 121 24 153 27 176 79 337 109 337 5 0 12 -46 16 -102z
m408 -249 c59 -13 107 -25 107 -29 0 -3 -30 -23 -67 -44 -135 -77 -262 -167
-340 -243 -94 -92 -128 -134 -178 -225 -33 -60 -55 -90 -55 -74 0 11 83 160
117 211 18 27 33 53 33 56 0 10 113 200 177 297 45 68 57 81 76 78 12 -3 70
-15 130 -27z m176 -121 c-5 -24 -13 -63 -18 -88 -6 -25 -17 -79 -25 -120 -9
-41 -21 -97 -27 -125 -6 -27 -12 -59 -14 -70 -3 -21 -30 -136 -45 -195 -5 -19
-11 -53 -14 -75 -11 -83 -10 -82 -46 -76 -5 0 -10 13 -10 29 0 15 -9 73 -20
128 -41 212 24 459 156 592 23 23 49 42 57 42 12 0 13 -8 6 -42z m95 10 c32
-202 27 -336 -19 -472 -37 -108 -154 -305 -182 -306 -17 0 -17 64 -1 93 7 12
20 63 29 112 9 50 33 169 53 265 20 96 42 200 48 230 6 30 15 59 20 65 4 5 8
17 8 27 0 11 7 18 20 18 14 0 20 -9 24 -32z m-2059 1 c33 -5 84 -16 113 -24
l54 -16 -26 -23 c-22 -18 -258 -105 -306 -112 -8 -1 -67 -11 -130 -22 -199
-34 -487 -39 -477 -8 6 20 128 94 237 144 103 47 120 52 235 67 99 13 185 12
300 -6z m1792 -61 c-29 -44 -88 -98 -197 -180 -41 -31 -100 -80 -130 -107 -91
-84 -91 -57 0 34 27 28 50 55 50 60 0 6 17 24 37 40 20 17 49 41 64 55 70 65
175 133 188 124 2 -2 -3 -14 -12 -26z m-1607 -48 c-13 -25 -101 -110 -114
-110 -5 0 -24 -11 -41 -25 -38 -28 -120 -66 -185 -84 -25 -8 -58 -18 -75 -23
-62 -19 -217 -21 -300 -5 -105 22 -229 70 -233 91 -3 14 9 15 117 9 141 -7
334 10 435 39 38 11 99 28 135 38 36 10 107 34 156 53 108 43 120 44 105 17z
m512 -117 c13 -16 35 -46 49 -68 13 -22 29 -46 35 -52 30 -31 58 -130 62 -220
3 -79 0 -105 -22 -177 -15 -46 -33 -90 -41 -96 -8 -7 -15 -18 -15 -24 0 -33
-143 -149 -225 -183 -48 -20 -242 -61 -336 -70 -58 -6 -66 4 -72 92 -2 39 -12
90 -23 115 -14 36 -18 72 -19 180 0 126 2 139 27 197 89 200 193 275 448 322
83 16 104 13 132 -16z m1000 -135 c-19 -150 -9 -252 39 -401 16 -50 29 -91 29
-92 0 -9 -528 -535 -537 -535 -10 0 -13 69 -13 310 0 339 -1 334 62 435 64
102 169 215 286 308 65 51 145 107 148 104 1 -1 -5 -59 -14 -129z m-782 -110
c0 -7 20 -34 43 -59 40 -44 122 -152 160 -212 10 -16 15 -36 13 -45 -20 -62
-52 -404 -66 -697 -6 -110 -15 -256 -20 -324 -6 -68 -10 -156 -10 -196 0 -81
-10 -165 -19 -165 -3 0 -25 17 -47 38 -23 20 -61 53 -85 72 -24 19 -70 58
-103 85 -33 28 -87 72 -120 99 -34 27 -108 88 -166 135 -58 47 -139 112 -180
146 -41 33 -80 65 -86 71 -7 6 -26 22 -43 36 -75 63 -174 290 -187 425 -6 62
-4 74 10 79 28 11 66 -22 66 -59 0 -46 31 -97 71 -119 40 -22 69 -23 135 -4
27 8 94 22 149 32 168 30 292 107 379 237 25 38 55 97 65 132 25 81 38 253 22
283 -10 18 -9 22 4 22 8 0 15 -6 15 -12z m1732 -299 c89 -14 225 -53 296 -85
29 -13 55 -24 58 -24 10 0 141 -88 148 -99 10 -16 -78 -2 -139 21 -119 47
-370 109 -560 138 -44 7 -86 18 -94 24 -40 31 145 47 291 25z m-112 -94 c36
-7 92 -19 125 -25 76 -15 140 -33 285 -81 107 -35 143 -47 213 -72 15 -5 27
-13 27 -18 0 -13 -75 -10 -165 6 -44 9 -103 19 -131 24 -96 18 -441 125 -506
158 -16 7 -28 17 -28 22 0 10 100 3 180 -14z m-767 -170 c32 -8 73 -15 92 -15
131 0 285 -91 381 -225 24 -35 44 -66 44 -71 0 -5 6 -20 13 -34 28 -53 39
-119 35 -207 -3 -75 -8 -98 -37 -157 -31 -61 -33 -72 -23 -100 31 -85 22 -88
-204 -77 -158 7 -196 12 -234 30 -164 76 -268 223 -285 402 -8 92 6 181 39
252 17 34 26 71 26 101 0 41 5 53 34 82 39 39 42 39 119 19z m-606 -157 c-3
-90 -1 -289 4 -443 5 -154 13 -480 18 -725 6 -245 15 -614 20 -820 6 -206 16
-602 21 -880 6 -278 13 -589 17 -692 l6 -188 -111 0 -112 0 0 63 c1 34 7 334
15 667 8 333 20 870 26 1194 l11 589 -153 148 c-85 81 -153 153 -152 159 2 5
-3 9 -10 7 -6 -1 -11 4 -10 10 2 7 -3 12 -10 10 -6 -1 -11 3 -10 10 2 7 -3 10
-10 7 -8 -3 -95 77 -208 191 -192 193 -250 261 -150 175 48 -42 82 -69 171
-138 78 -61 157 -125 185 -150 17 -15 66 -56 110 -91 44 -35 96 -79 115 -97
45 -41 109 -84 126 -84 10 0 14 16 14 58 0 93 29 650 40 742 5 47 12 165 16
263 4 111 10 177 17 177 7 0 8 -53 4 -162z m1430 132 c71 -145 99 -218 143
-380 39 -144 75 -338 85 -457 3 -37 8 -89 11 -115 7 -69 -11 -62 -73 27 -101
145 -174 313 -205 470 -14 74 -18 436 -6 468 10 23 30 18 45 -13z m107 -13
c61 -46 143 -135 179 -193 20 -33 51 -103 68 -155 31 -87 33 -104 33 -229 1
-80 -4 -147 -11 -165 -6 -16 -19 -58 -30 -93 -10 -34 -27 -74 -39 -89 l-21
-26 -17 139 c-9 76 -21 157 -26 179 -5 22 -14 69 -20 105 -22 122 -52 234 -92
350 -17 47 -32 94 -35 105 -3 11 -11 34 -19 52 -23 51 -16 56 30 20z m-2807
-368 c72 -10 124 -29 78 -29 -10 0 -97 -26 -194 -58 -97 -33 -196 -65 -221
-72 -25 -7 -65 -18 -90 -25 -110 -31 -141 -37 -172 -31 -18 3 -48 2 -66 -3
-45 -13 -34 -1 56 62 98 69 184 109 292 136 140 34 193 37 317 20z m123 -68
c0 -15 -105 -105 -152 -130 -206 -112 -246 -123 -478 -125 -96 0 -187 2 -201
6 -28 8 -36 37 -10 36 37 0 568 138 631 164 14 6 39 12 55 14 17 2 48 13 70
24 41 21 85 27 85 11z m315 -442 c4 -17 27 -54 51 -82 25 -29 48 -57 53 -63
42 -54 71 -175 71 -299 -1 -261 -116 -436 -340 -516 -36 -13 -91 -42 -124 -66
-36 -27 -69 -43 -87 -43 -31 0 -32 3 -44 88 -5 42 -19 74 -42 99 -29 32 -83
134 -102 192 -16 49 -21 90 -21 173 0 95 3 117 26 171 43 101 93 166 183 236
69 54 116 75 237 106 54 14 100 28 103 30 13 14 30 2 36 -26z m1815 -299 c0
-32 -134 -179 -255 -280 -36 -30 -237 -151 -242 -146 -16 15 24 73 111 159
155 156 195 189 329 264 27 15 57 17 57 3z m387 -250 c99 -11 225 -52 317
-104 66 -37 220 -177 244 -222 11 -21 10 -21 -34 -13 -39 7 -138 54 -169 79
-14 12 -296 151 -375 186 -60 26 -140 72 -140 80 0 7 73 4 157 -6z m-101 -85
c65 -26 128 -52 169 -70 17 -7 73 -32 125 -56 88 -39 122 -56 282 -141 32 -17
55 -34 52 -39 -3 -5 0 -9 7 -9 7 0 10 -2 7 -5 -9 -10 -150 15 -233 41 -90 28
-97 30 -180 68 -101 46 -305 191 -305 217 0 14 33 11 76 -6z"/>
<path d="M6711 11324 c0 -11 3 -14 6 -6 3 7 2 16 -1 19 -3 4 -6 -2 -5 -13z"/>
<path d="M5810 11425 c13 -14 26 -25 28 -25 3 0 -5 11 -18 25 -13 14 -26 25
-28 25 -3 0 5 -11 18 -25z"/>
<path d="M8150 10925 c0 -8 7 -15 15 -15 8 0 15 7 15 15 0 8 -7 15 -15 15 -8
0 -15 -7 -15 -15z"/>
<path d="M8048 10884 c-29 -15 -32 -22 -22 -48 13 -34 64 0 64 42 0 26 -5 26
-42 6z"/>
<path d="M6560 10271 c0 -30 11 -51 26 -51 18 0 18 37 0 56 -20 19 -26 18 -26
-5z"/>
<path d="M6592 10158 c-17 -17 -15 -46 3 -65 20 -19 45 -1 45 31 0 21 -17 46
-30 46 -3 0 -11 -5 -18 -12z"/>
<path d="M6572 10008 c-17 -17 -15 -68 2 -68 29 0 46 13 46 34 0 21 -17 46
-30 46 -3 0 -11 -5 -18 -12z"/>
<path d="M6508 9851 c-4 -24 0 -30 18 -34 24 -4 34 9 34 44 0 13 -7 19 -24 19
-19 0 -25 -6 -28 -29z"/>
<path d="M6456 9758 c-20 -28 -20 -38 -1 -38 14 0 35 29 35 49 0 18 -18 12
-34 -11z"/>
<path d="M7811 9556 c10 -9 69 -36 69 -32 0 6 -55 36 -66 36 -4 0 -5 -2 -3 -4z"/>
<path d="M7920 9496 c0 -2 8 -10 18 -17 15 -13 16 -12 3 4 -13 16 -21 21 -21
13z"/>
<path d="M8086 9307 c3 -10 9 -15 12 -12 3 3 0 11 -7 18 -10 9 -11 8 -5 -6z"/>
<path d="M6820 8346 c0 -2 8 -10 18 -17 15 -13 16 -12 3 4 -13 16 -21 21 -21
13z"/>
<path d="M7022 7445 c0 -16 2 -22 5 -12 2 9 2 23 0 30 -3 6 -5 -1 -5 -18z"/>
<path d="M7053 5945 c0 -38 2 -53 4 -32 2 20 2 52 0 70 -2 17 -4 1 -4 -38z"/>
<path d="M6155 8580 c-7 -23 10 -50 31 -50 19 0 27 18 20 46 -8 30 -42 32 -51
4z"/>
<path d="M6223 8483 c-16 -6 -17 -45 -1 -61 28 -28 53 -2 42 44 -6 23 -16 28
-41 17z"/>
<path d="M6250 8330 c0 -25 4 -31 18 -28 11 2 17 12 17 28 0 16 -6 26 -17 28
-14 3 -18 -3 -18 -28z"/>
<path d="M6219 8216 c-7 -14 -9 -32 -6 -40 10 -24 44 -20 51 7 9 33 8 35 -14
47 -17 9 -22 7 -31 -14z"/>
<path d="M6176 8068 c-24 -34 -20 -50 12 -46 22 2 27 8 27 32 0 37 -18 44 -39
14z"/>
<path d="M6102 7950 c-20 -33 -15 -60 11 -60 29 0 50 38 35 63 -12 23 -30 21
-46 -3z"/>
<path d="M5989 7826 c-7 -14 -10 -29 -6 -32 10 -11 48 17 45 33 -5 27 -27 26
-39 -1z"/>
<path d="M7060 5610 c-13 -8 -13 -10 2 -10 9 0 20 5 23 10 8 13 -5 13 -25 0z"/>
<path d="M6908 5603 c12 -2 32 -2 45 0 12 2 2 4 -23 4 -25 0 -35 -2 -22 -4z"/>
<path d="M7018 5603 c7 -3 16 -2 19 1 4 3 -2 6 -13 5 -11 0 -14 -3 -6 -6z"/>
<path d="M8755 4883 c-103 -8 -243 -47 -336 -94 -278 -140 -460 -436 -462
-754 -2 -310 150 -597 398 -751 83 -52 126 -72 215 -100 78 -25 98 -27 255
-28 162 0 174 1 250 28 283 101 477 288 567 545 45 132 61 315 38 447 -57 320
-300 586 -620 677 -82 23 -218 37 -305 30z m223 -88 c93 -19 186 -56 267 -106
60 -37 225 -197 225 -217 0 -6 4 -12 8 -14 15 -5 70 -120 99 -203 25 -74 27
-92 28 -240 0 -153 -1 -164 -29 -240 -40 -108 -77 -174 -141 -255 -49 -62
-130 -137 -180 -167 -64 -39 -191 -92 -258 -108 -98 -22 -297 -16 -397 12 -74
22 -210 82 -210 94 0 4 -9 10 -20 14 -34 11 -156 138 -202 211 -112 177 -160
390 -127 570 50 279 205 486 447 596 138 64 331 84 490 53z"/>
<path d="M8637 4690 c-195 -54 -354 -186 -435 -364 -49 -106 -66 -201 -59
-334 10 -200 61 -326 180 -451 142 -148 290 -211 497 -211 163 1 261 29 396
117 50 32 184 176 184 197 0 5 8 20 19 34 10 15 33 70 51 122 30 88 33 104 33
225 -1 118 -3 138 -30 217 -41 119 -84 188 -173 278 -59 60 -93 85 -160 117
-47 23 -115 48 -151 57 -90 22 -263 20 -352 -4z m363 -77 c181 -50 344 -211
402 -398 27 -85 31 -270 9 -350 -27 -95 -84 -198 -156 -283 -52 -62 -188 -139
-285 -163 -74 -17 -252 -16 -316 4 -200 60 -339 200 -408 412 -37 114 -37 268
0 387 70 223 257 379 489 408 77 10 195 2 265 -17z"/>
<path d="M10273 4860 c-12 -5 -25 -20 -29 -34 -3 -14 -4 -380 -2 -814 2 -650
5 -792 17 -805 20 -25 212 -25 232 0 11 13 15 120 18 576 l3 560 27 -29 c14
-16 62 -72 106 -124 44 -52 85 -99 91 -105 6 -5 55 -62 109 -125 54 -63 103
-119 109 -125 14 -13 236 -271 296 -345 25 -30 50 -61 57 -68 7 -7 29 -34 50
-60 41 -51 106 -124 138 -154 42 -40 129 -35 145 8 6 15 10 343 10 829 l0 805
-26 6 c-14 4 -67 4 -117 1 -72 -4 -93 -8 -104 -23 -10 -14 -13 -128 -13 -568
l-1 -551 -42 50 c-53 63 -259 298 -267 305 -5 4 -184 211 -324 375 -28 32 -71
82 -96 110 -51 58 -63 72 -178 206 -45 53 -89 100 -98 103 -22 9 -85 6 -111
-4z m123 -126 c27 -31 62 -69 77 -85 16 -16 25 -34 21 -40 -4 -7 -3 -9 3 -6
12 8 100 -85 213 -223 25 -30 55 -66 67 -79 12 -14 19 -29 16 -34 -3 -6 -2 -7
4 -4 5 4 30 -17 54 -45 24 -28 76 -88 114 -132 39 -45 105 -121 147 -171 41
-49 87 -102 101 -117 14 -15 58 -67 98 -115 40 -49 92 -107 116 -131 l43 -43
0 636 0 635 49 0 49 0 7 -52 c7 -52 -4 -1447 -11 -1460 -3 -4 -23 13 -45 37
-22 24 -38 49 -34 54 3 6 0 9 -7 6 -11 -3 -43 29 -156 163 -13 15 -44 50 -70
77 -86 90 -144 164 -137 174 3 7 0 8 -9 5 -9 -3 -16 -2 -16 2 0 9 -23 38 -83
104 -18 19 -55 62 -82 95 -69 82 -222 260 -272 315 -115 127 -173 201 -167
212 4 7 3 8 -5 4 -7 -4 -19 2 -30 15 -17 21 -18 4 -24 -538 -4 -308 -4 -595 0
-637 7 -89 3 -96 -64 -96 l-43 0 0 765 c0 647 2 765 14 765 8 0 36 -25 62 -56z"/>
<path d="M10411 4364 c0 -11 3 -14 6 -6 3 7 2 16 -1 19 -3 4 -6 -2 -5 -13z"/>
<path d="M10730 4236 c0 -2 8 -10 18 -17 15 -13 16 -12 3 4 -13 16 -21 21 -21
13z"/>
<path d="M11350 3516 c0 -2 8 -10 18 -17 15 -13 16 -12 3 4 -13 16 -21 21 -21
13z"/>
<path d="M2495 4853 c-16 -3 -33 -10 -37 -16 -12 -19 -10 -1605 2 -1628 10
-18 27 -19 554 -19 493 0 545 2 557 17 18 20 24 158 10 196 l-11 27 -414 0
c-228 0 -421 3 -430 6 -14 6 -16 77 -16 705 l0 699 -26 10 c-25 10 -131 11
-189 3z m135 -778 l0 -715 440 0 440 0 0 -43 0 -44 -172 -6 c-95 -4 -316 -7
-490 -7 l-318 0 0 759 0 760 23 4 c12 2 34 5 50 6 l27 1 0 -715z"/>
<path d="M4105 4853 c-16 -3 -33 -10 -37 -16 -4 -7 -8 -375 -8 -819 0 -788 0
-808 19 -818 31 -16 1086 -14 1098 3 17 20 24 169 10 197 l-13 25 -424 5 -425
5 0 220 0 220 328 5 c390 6 360 -5 355 137 -2 50 -7 95 -11 100 -5 4 -158 10
-340 13 l-332 5 0 48 c1 26 2 133 3 237 l2 190 408 0 c483 0 442 -12 442 126
0 49 -5 96 -10 104 -8 13 -78 15 -522 16 -282 1 -526 -1 -543 -3z m1005 -118
l0 -45 -282 -2 c-156 -2 -339 -3 -408 -3 -69 0 -138 -1 -154 -3 l-28 -2 4
-305 c2 -167 7 -308 12 -312 4 -4 158 -6 342 -4 l334 3 0 -44 0 -45 -334 -6
c-184 -3 -340 -8 -345 -12 -12 -7 -16 -532 -5 -572 l6 -23 428 0 c470 0 440 4
440 -61 0 -21 -6 -30 -22 -34 -13 -3 -232 -4 -488 -3 l-465 3 -3 758 -2 757
485 0 485 0 0 -45z"/>
<path d="M5750 4834 c-15 -40 -13 -1617 2 -1632 8 -8 49 -12 120 -12 l107 0
11 42 c8 29 10 181 4 533 -4 307 -3 494 3 498 8 5 38 -32 222 -283 31 -41 58
-77 61 -80 3 -3 54 -73 113 -156 59 -83 124 -170 143 -193 57 -66 72 -59 176
84 48 66 87 125 87 132 1 6 5 13 9 15 10 4 189 252 252 348 36 56 59 87 87
119 l22 26 1 -531 c0 -422 3 -534 13 -542 7 -6 54 -14 105 -18 76 -6 95 -4
117 10 l25 16 0 813 c0 619 -3 816 -12 825 -13 13 -116 16 -134 4 -5 -4 -23
-25 -40 -47 -16 -22 -35 -46 -41 -53 -7 -7 -13 -17 -13 -20 0 -4 -10 -18 -23
-32 -13 -14 -56 -72 -97 -130 -41 -58 -108 -150 -150 -205 -42 -55 -103 -138
-135 -185 -33 -47 -65 -91 -73 -99 -7 -7 -30 -39 -52 -70 -58 -83 -68 -94 -79
-87 -5 3 -31 37 -57 74 -26 37 -51 69 -54 72 -3 3 -45 59 -92 125 -47 66 -94
130 -104 142 -11 13 -33 42 -50 65 -17 24 -69 95 -116 158 -46 63 -104 142
-128 175 -81 114 -96 125 -162 125 -54 0 -59 -2 -68 -26z m1600 -809 l0 -765
-50 0 -50 0 -1 598 c-1 328 -4 607 -8 620 l-6 24 -21 -24 c-12 -13 -77 -102
-144 -198 -271 -384 -350 -493 -362 -498 -5 -2 -8 -8 -8 -13 0 -17 -99 -149
-112 -149 -3 0 -35 39 -69 88 -35 48 -66 89 -69 92 -3 3 -59 79 -125 170 -65
91 -122 167 -125 170 -4 3 -38 48 -76 101 -114 159 -185 249 -195 249 -5 0 -9
-236 -9 -615 l0 -615 -50 0 -50 0 0 760 c0 483 4 760 10 760 11 0 93 -105 350
-450 55 -74 108 -144 117 -155 9 -11 48 -64 87 -118 142 -198 159 -221 177
-241 11 -11 19 -23 19 -28 0 -17 16 -7 32 20 9 15 25 36 35 47 10 11 40 52 66
90 138 201 288 409 298 413 5 2 9 8 9 13 0 5 7 17 15 26 8 10 39 50 67 89 168
226 231 304 243 304 3 0 5 -344 5 -765z"/>
<path d="M4203 2222 c-12 -2 -23 -13 -26 -25 -9 -34 -11 -502 -3 -515 9 -16
49 -15 64 0 8 8 12 47 12 110 l0 98 58 0 57 -1 60 -76 c33 -42 68 -89 78 -105
20 -34 55 -49 79 -37 24 13 12 42 -57 137 -53 74 -66 102 -45 102 18 0 88 55
102 79 18 34 14 122 -7 154 -30 47 -77 68 -162 73 -157 9 -188 10 -210 6z
m270 -91 c29 -11 52 -61 43 -96 -12 -47 -59 -65 -168 -65 l-98 0 0 85 0 85 99
0 c55 0 111 -4 124 -9z"/>
<path d="M4921 2223 c-85 -2 -150 -8 -158 -15 -10 -8 -13 -67 -13 -269 l0
-259 28 -11 c16 -7 91 -9 190 -7 149 3 165 5 178 23 33 45 20 50 -147 53
l-156 2 -5 43 c-2 23 -3 61 0 85 l4 42 120 0 119 0 -3 32 c-3 30 -7 34 -43 40
-22 4 -68 5 -101 2 -86 -8 -104 3 -104 66 0 27 4 60 9 73 9 24 12 25 129 26
140 2 176 10 180 37 3 22 -35 46 -66 42 -9 -1 -82 -4 -161 -5z"/>
<path d="M5383 2214 c-18 -7 -48 -30 -67 -49 -32 -31 -36 -42 -36 -86 0 -35 6
-60 21 -80 26 -37 43 -46 137 -70 144 -37 182 -58 182 -102 0 -117 -233 -129
-281 -15 -10 24 -17 29 -43 26 -27 -3 -31 -7 -34 -34 -3 -26 4 -39 35 -69 61
-59 88 -70 183 -70 96 0 138 15 189 67 33 34 47 82 36 125 -17 70 -64 101
-200 133 -120 28 -157 57 -140 110 8 26 66 60 101 60 45 -1 107 -33 137 -74
24 -30 31 -34 48 -26 30 16 25 70 -8 102 -53 49 -99 68 -166 67 -34 0 -76 -7
-94 -15z"/>
<path d="M6524 2222 c-13 -8 -64 -98 -64 -112 0 -8 -23 -63 -65 -155 -50 -109
-103 -234 -109 -257 -5 -23 -3 -28 18 -34 35 -8 42 -2 81 77 30 60 39 69 63
70 15 0 73 1 130 3 117 2 116 3 157 -92 22 -51 46 -67 75 -52 24 13 22 22 -20
115 -15 33 -44 101 -65 150 -20 50 -50 118 -66 152 -16 34 -29 66 -29 70 0 4
-13 23 -29 41 -28 31 -54 40 -77 24z m86 -220 c22 -51 40 -97 40 -103 0 -5
-42 -9 -96 -9 l-96 0 6 24 c13 54 87 199 96 190 5 -5 28 -51 50 -102z"/>
<path d="M6947 2212 c-15 -16 -17 -45 -17 -199 0 -198 6 -230 54 -281 48 -52
90 -67 181 -67 91 0 132 15 182 67 49 50 56 79 61 250 5 191 0 226 -34 234
-50 13 -54 -3 -54 -200 0 -198 -6 -223 -66 -262 -38 -25 -142 -24 -176 2 -58
43 -63 63 -63 262 0 170 -1 185 -19 198 -25 18 -30 18 -49 -4z"/>
<path d="M5800 2199 c-22 -40 -7 -49 84 -49 57 0 87 -4 93 -12 4 -7 8 -110 8
-228 0 -118 4 -221 8 -227 12 -19 64 -16 71 3 3 9 6 114 6 234 l0 218 28 6
c15 3 50 5 78 4 57 -2 74 5 74 31 0 38 -17 41 -232 41 -200 0 -208 -1 -218
-21z"/>
<path d="M7606 2204 c-14 -14 -16 -49 -14 -272 l3 -257 34 -3 c20 -2 37 2 42
10 5 7 9 57 9 110 0 53 3 99 8 101 4 2 31 1 59 -2 52 -6 54 -7 100 -76 100
-146 127 -171 158 -145 24 20 19 33 -45 127 -33 48 -60 93 -60 99 0 7 11 15
25 18 14 4 25 11 25 16 0 6 5 10 11 10 32 0 69 71 69 131 0 49 -3 55 -44 94
-52 51 -71 55 -237 55 -103 0 -131 -3 -143 -16z m294 -79 c33 -17 44 -43 35
-84 -12 -54 -36 -66 -151 -69 l-104 -4 0 86 0 86 95 0 c66 0 105 -5 125 -15z"/>
<path d="M8828 2209 c-16 -9 -18 -33 -18 -273 0 -259 0 -264 21 -269 44 -12
46 -5 55 206 l9 202 64 -75 c86 -102 91 -107 136 -170 21 -30 42 -57 45 -60 3
-3 22 -26 43 -52 30 -38 45 -48 68 -48 l29 0 0 269 c0 248 -1 269 -17 273 -56
13 -63 -10 -63 -224 0 -82 -2 -148 -5 -148 -10 0 -38 32 -106 115 -35 44 -66
82 -69 85 -3 3 -32 38 -64 78 -53 66 -91 103 -106 102 -3 0 -13 -5 -22 -11z"/>
<path d="M9422 2203 c-6 -10 -6 -28 -1 -40 8 -21 14 -23 93 -23 78 0 84 -1 90
-22 3 -13 6 -118 6 -234 0 -228 0 -227 53 -217 l27 5 2 232 3 231 80 6 c44 4
88 10 98 14 21 9 23 51 1 59 -9 3 -112 6 -229 6 -194 0 -215 -2 -223 -17z"/>
<path d="M8345 2173 c-14 -21 -25 -41 -25 -45 0 -4 -16 -41 -35 -82 -19 -41
-35 -77 -35 -80 0 -3 -20 -47 -44 -98 -86 -183 -89 -193 -50 -202 34 -9 47 3
82 79 l30 63 124 4 c67 2 128 2 133 1 6 -2 26 -35 45 -73 19 -38 40 -72 46
-74 23 -9 54 6 54 26 0 26 -88 237 -186 446 -34 72 -34 72 -74 72 -34 0 -43
-5 -65 -37z m106 -157 c21 -46 39 -93 39 -105 0 -20 -5 -21 -90 -21 -49 0 -90
3 -90 6 0 4 18 46 40 95 22 49 40 94 40 99 0 6 5 10 11 10 6 0 28 -38 50 -84z"/>
</g>
</svg>
